<svg width="32" height="32" viewBox="0 0 32 32" fill="none" xmlns="http://www.w3.org/2000/svg">
  <!-- Background circle with gradient -->
  <defs>
    <linearGradient id="bgGradient" x1="0%" y1="0%" x2="100%" y2="100%">
      <stop offset="0%" style="stop-color:#667eea;stop-opacity:1" />
      <stop offset="100%" style="stop-color:#764ba2;stop-opacity:1" />
    </linearGradient>
  </defs>
  
  <!-- Main background circle -->
  <circle cx="16" cy="16" r="15" fill="url(#bgGradient)"/>
  
  <!-- Central "C" for CampusConnect -->
  <path d="M12 8 Q8 8 8 12 L8 20 Q8 24 12 24 L20 24 Q24 24 24 20 L24 12 Q24 8 20 8 Z" fill="none" stroke="#ffffff" stroke-width="2" stroke-linecap="round"/>
  
  <!-- Connection dots -->
  <circle cx="8" cy="8" r="1.5" fill="#ffffff" opacity="0.8"/>
  <circle cx="24" cy="8" r="1.5" fill="#ffffff" opacity="0.8"/>
  <circle cx="8" cy="24" r="1.5" fill="#ffffff" opacity="0.8"/>
  <circle cx="24" cy="24" r="1.5" fill="#ffffff" opacity="0.8"/>
  
  <!-- Central hub -->
  <circle cx="16" cy="16" r="2" fill="#ffffff"/>
  
  <!-- Connection lines -->
  <line x1="9.5" y1="9.5" x2="14" y2="14" stroke="#ffffff" stroke-width="1" opacity="0.6"/>
  <line x1="22.5" y1="9.5" x2="18" y2="14" stroke="#ffffff" stroke-width="1" opacity="0.6"/>
  <line x1="9.5" y1="22.5" x2="14" y2="18" stroke="#ffffff" stroke-width="1" opacity="0.6"/>
  <line x1="22.5" y1="22.5" x2="18" y2="18" stroke="#ffffff" stroke-width="1" opacity="0.6"/>
</svg> 