<svg width="128" height="128" viewBox="0 0 128 128" fill="none" xmlns="http://www.w3.org/2000/svg">
  <!-- Background circle with gradient -->
  <defs>
    <linearGradient id="bgGradient" x1="0%" y1="0%" x2="100%" y2="100%">
      <stop offset="0%" style="stop-color:#667eea;stop-opacity:1" />
      <stop offset="100%" style="stop-color:#764ba2;stop-opacity:1" />
    </linearGradient>
    <linearGradient id="iconGradient" x1="0%" y1="0%" x2="100%" y2="100%">
      <stop offset="0%" style="stop-color:#ffffff;stop-opacity:1" />
      <stop offset="100%" style="stop-color:#f0f0f0;stop-opacity:1" />
    </linearGradient>
    <linearGradient id="accentGradient" x1="0%" y1="0%" x2="100%" y2="100%">
      <stop offset="0%" style="stop-color:#ffd700;stop-opacity:1" />
      <stop offset="100%" style="stop-color:#ffed4e;stop-opacity:1" />
    </linearGradient>
  </defs>
  
  <!-- Main background circle -->
  <circle cx="64" cy="64" r="60" fill="url(#bgGradient)" stroke="#ffffff" stroke-width="2"/>
  
  <!-- Central building/graduation cap -->
  <path d="M48 72 L80 72 L80 88 L64 96 L48 88 Z" fill="url(#iconGradient)"/>
  <rect x="52" y="88" width="24" height="16" fill="url(#iconGradient)"/>
  
  <!-- Connection dots representing network -->
  <circle cx="32" cy="32" r="6" fill="#ffffff" opacity="0.9"/>
  <circle cx="96" cy="32" r="6" fill="#ffffff" opacity="0.9"/>
  <circle cx="32" cy="96" r="6" fill="#ffffff" opacity="0.9"/>
  <circle cx="96" cy="96" r="6" fill="#ffffff" opacity="0.9"/>
  
  <!-- Connection lines -->
  <line x1="40" y1="40" x2="88" y2="40" stroke="#ffffff" stroke-width="3" opacity="0.7"/>
  <line x1="40" y1="88" x2="88" y2="88" stroke="#ffffff" stroke-width="3" opacity="0.7"/>
  <line x1="40" y1="40" x2="40" y2="88" stroke="#ffffff" stroke-width="3" opacity="0.7"/>
  <line x1="88" y1="40" x2="88" y2="88" stroke="#ffffff" stroke-width="3" opacity="0.7"/>
  
  <!-- Central connection hub -->
  <circle cx="64" cy="64" r="12" fill="#ffffff" opacity="0.8"/>
  <circle cx="64" cy="64" r="6" fill="url(#bgGradient)"/>
  
  <!-- Small connecting lines to central hub -->
  <line x1="40" y1="40" x2="52" y2="52" stroke="#ffffff" stroke-width="2" opacity="0.6"/>
  <line x1="88" y1="40" x2="76" y2="52" stroke="#ffffff" stroke-width="2" opacity="0.6"/>
  <line x1="40" y1="88" x2="52" y2="76" stroke="#ffffff" stroke-width="2" opacity="0.6"/>
  <line x1="88" y1="88" x2="76" y2="76" stroke="#ffffff" stroke-width="2" opacity="0.6"/>
  
  <!-- Subtle glow effect -->
  <circle cx="64" cy="64" r="56" fill="none" stroke="#ffffff" stroke-width="1" opacity="0.3"/>
  
  <!-- Additional decorative elements -->
  <circle cx="64" cy="64" r="48" fill="none" stroke="url(#accentGradient)" stroke-width="1" opacity="0.4"/>
  <circle cx="64" cy="64" r="40" fill="none" stroke="url(#accentGradient)" stroke-width="0.5" opacity="0.3"/>
</svg> 