<svg width="32" height="32" viewBox="0 0 32 32" fill="none" xmlns="http://www.w3.org/2000/svg">
  <!-- Background circle with gradient -->
  <defs>
    <linearGradient id="bgGradient" x1="0%" y1="0%" x2="100%" y2="100%">
      <stop offset="0%" style="stop-color:#667eea;stop-opacity:1" />
      <stop offset="100%" style="stop-color:#764ba2;stop-opacity:1" />
    </linearGradient>
    <linearGradient id="iconGradient" x1="0%" y1="0%" x2="100%" y2="100%">
      <stop offset="0%" style="stop-color:#ffffff;stop-opacity:1" />
      <stop offset="100%" style="stop-color:#f0f0f0;stop-opacity:1" />
    </linearGradient>
  </defs>
  
  <!-- Main background circle -->
  <circle cx="16" cy="16" r="15" fill="url(#bgGradient)" stroke="#ffffff" stroke-width="1"/>
  
  <!-- Central building/graduation cap -->
  <path d="M12 18 L20 18 L20 22 L16 24 L12 22 Z" fill="url(#iconGradient)"/>
  <rect x="13" y="22" width="6" height="4" fill="url(#iconGradient)"/>
  
  <!-- Connection dots representing network -->
  <circle cx="8" cy="8" r="2" fill="#ffffff" opacity="0.9"/>
  <circle cx="24" cy="8" r="2" fill="#ffffff" opacity="0.9"/>
  <circle cx="8" cy="24" r="2" fill="#ffffff" opacity="0.9"/>
  <circle cx="24" cy="24" r="2" fill="#ffffff" opacity="0.9"/>
  
  <!-- Connection lines -->
  <line x1="10" y1="10" x2="22" y2="10" stroke="#ffffff" stroke-width="1" opacity="0.7"/>
  <line x1="10" y1="22" x2="22" y2="22" stroke="#ffffff" stroke-width="1" opacity="0.7"/>
  <line x1="10" y1="10" x2="10" y2="22" stroke="#ffffff" stroke-width="1" opacity="0.7"/>
  <line x1="22" y1="10" x2="22" y2="22" stroke="#ffffff" stroke-width="1" opacity="0.7"/>
  
  <!-- Central connection hub -->
  <circle cx="16" cy="16" r="3" fill="#ffffff" opacity="0.8"/>
  <circle cx="16" cy="16" r="1.5" fill="url(#bgGradient)"/>
  
  <!-- Small connecting lines to central hub -->
  <line x1="10" y1="10" x2="13" y2="13" stroke="#ffffff" stroke-width="0.5" opacity="0.6"/>
  <line x1="22" y1="10" x2="19" y2="13" stroke="#ffffff" stroke-width="0.5" opacity="0.6"/>
  <line x1="10" y1="22" x2="13" y2="19" stroke="#ffffff" stroke-width="0.5" opacity="0.6"/>
  <line x1="22" y1="22" x2="19" y2="19" stroke="#ffffff" stroke-width="0.5" opacity="0.6"/>
  
  <!-- Subtle glow effect -->
  <circle cx="16" cy="16" r="14" fill="none" stroke="#ffffff" stroke-width="0.5" opacity="0.3"/>
</svg> 